<?xml version="1.0" standalone="no"?>
<!DOCTYPE svg PUBLIC "-//W3C//DTD SVG 20010904//EN"
 "http://www.w3.org/TR/2001/REC-SVG-20010904/DTD/svg10.dtd">
<svg version="1.0" xmlns="http://www.w3.org/2000/svg"
 width="100.000000pt" height="100.000000pt" viewBox="0 0 100.000000 100.000000"
 preserveAspectRatio="xMidYMid meet">
<metadata>
Created by potrace 1.14, written by Peter Selinger 2001-2017
</metadata>
<g transform="translate(0.000000,100.000000) scale(0.100000,-0.100000)"
fill="#000000" stroke="none">
<path d="M48 983 c-14 -9 -31 -27 -37 -40 -7 -16 -11 -166 -11 -444 0 -458 0
-462 57 -488 16 -7 166 -11 454 -11 428 0 460 2 481 34 4 6 8 218 8 471 l0
461 -29 17 c-26 15 -71 17 -463 17 -386 -1 -436 -2 -460 -17z"/>
</g>
</svg>
